<svg xmlns="http://www.w3.org/2000/svg" viewBox="0 0 1600 900" role="img" aria-labelledby="title desc">
<title id="title">Classification and use recommendation</title><desc id="desc">Folio evidence card 7 of 12. Blank prompts guide the student through classification and use recommendation without supplying evidence or conclusions.</desc>
<defs><marker id="arrow" viewBox="0 0 10 10" refX="9" refY="5" markerWidth="10" markerHeight="10" orient="auto-start-reverse"><path d="M0 0L10 5L0 10z" fill="#486581"/></marker><style>.t{font:700 48px Arial,sans-serif;fill:#102a43}.h{font:700 34px Arial,sans-serif;fill:#102a43}.b{font:400 29px Arial,sans-serif;fill:#243b53}.n{font:600 25px Arial,sans-serif;fill:#486581}.sm{font:600 22px Arial,sans-serif;fill:#486581}.white{fill:#fff}.arrow{fill:none;stroke:#486581;stroke-width:7;marker-end:url(#arrow)}.dash{fill:none;stroke:#486581;stroke-width:5;stroke-dasharray:16 12}.thin{fill:none;stroke:#486581;stroke-width:4}</style></defs>
<rect width="1600" height="900" fill="#f7fafc"/><rect width="1600" height="18" fill="#8a5a13"/><text x="70" y="90" class="t" text-anchor="start">Classification and use recommendation</text><text x="80" y="145" class="n" text-anchor="start">Folio evidence card 07 of 12 • FVG-M03-S01-01</text><rect x="80" y="195" width="1440" height="128.5" rx="24" fill="#fff" stroke="#8a5a13" stroke-width="5"/><circle cx="135" cy="259.25" r="27" fill="#8a5a13"/><text x="135" y="270.25" class="n white" text-anchor="middle">1</text><text x="190" y="240" class="h" text-anchor="start">Classification table or summary</text><line x1="190" y1="295.5" x2="1455" y2="295.5" stroke="#9fb3c8" stroke-width="4"/><rect x="80" y="337.5" width="1440" height="128.5" rx="24" fill="#fff" stroke="#8a5a13" stroke-width="5"/><circle cx="135" cy="401.75" r="27" fill="#8a5a13"/><text x="135" y="412.75" class="n white" text-anchor="middle">2</text><text x="190" y="382.5" class="h" text-anchor="start">Relevant property evidence</text><line x1="190" y1="438" x2="1455" y2="438" stroke="#9fb3c8" stroke-width="4"/><rect x="80" y="480" width="1440" height="128.5" rx="24" fill="#fff" stroke="#8a5a13" stroke-width="5"/><circle cx="135" cy="544.25" r="27" fill="#8a5a13"/><text x="135" y="555.25" class="n white" text-anchor="middle">3</text><text x="190" y="525" class="h" text-anchor="start">Recommended use or material</text><line x1="190" y1="580.5" x2="1455" y2="580.5" stroke="#9fb3c8" stroke-width="4"/><rect x="80" y="622.5" width="1440" height="128.5" rx="24" fill="#fff" stroke="#8a5a13" stroke-width="5"/><circle cx="135" cy="686.75" r="27" fill="#8a5a13"/><text x="135" y="697.75" class="n white" text-anchor="middle">4</text><text x="190" y="667.5" class="h" text-anchor="start">Evidence-based justification</text><line x1="190" y1="723" x2="1455" y2="723" stroke="#9fb3c8" stroke-width="4"/><text x="800" y="825" class="n" text-anchor="middle">Blank lines are for student evidence • numbered stages show reasoning order, not a scientific result</text></svg>